<?xml version="1.0" encoding="UTF-8"?>
<svg id="_레이어_2" data-name="레이어 2" xmlns="http://www.w3.org/2000/svg" viewBox="0 0 1104.31 198.43">
  <defs>
    <style>
      .cls-1 {
        fill: #00823d;
      }

      .cls-2 {
        fill: #00ae42;
      }

      .cls-3 {
        fill: #002f87;
      }

      .cls-4 {
        fill: #38d430;
      }
    </style>
  </defs>
  <g id="_레이어_1-2" data-name="레이어 1">
    <g>
      <g>
        <polygon class="cls-1" points="57.28 99.21 0 198.43 114.56 198.43 57.28 99.21"/>
        <polygon class="cls-4" points="0 0 114.56 0 171.84 99.21 0 0"/>
        <polygon class="cls-2" points="0 0 171.84 99.21 114.56 198.43 0 0"/>
      </g>
      <g>
        <path class="cls-3" d="M531.14,91.5c-17.27,0-27.39-11.61-27.39-28.59s9.99-28.59,27.26-28.59c9.24,0,15.92,3.19,19.9,7.4l-8.3,7.54c-2.9-3.33-6.95-4.75-11.61-4.75-8.84,0-15.18,6.52-15.18,18.4s6.48,18.47,15.32,18.47c5.8,0,10.73-2.58,13.43-6.04l7.22,8.28c-4.99,4.82-11.27,7.88-20.65,7.88Z"/>
        <path class="cls-3" d="M553.13,62.92c0-16.98,10.8-28.59,27.39-28.59s27.26,11.61,27.26,28.59-10.86,28.59-27.26,28.59-27.39-11.61-27.39-28.59ZM580.53,81.38c8.77,0,15.25-6.52,15.25-18.47s-6.48-18.4-15.25-18.4-15.32,6.52-15.32,18.4,6.48,18.47,15.32,18.47Z"/>
        <path class="cls-3" d="M614.53,35.08h10.12l24.56,33.54v-33.54h12.15v55.54h-10.05l-24.63-33.95v33.88h-12.15v-55.48Z"/>
        <path class="cls-3" d="M689.76,81.86c6.14,0,9.58-2.58,9.58-6.86,0-3.8-2.7-5.84-8.1-7.2l-5.8-1.43c-9.45-2.31-16.26-7.13-16.26-16.16s7.89-16.16,21.25-16.16c12.55,0,20.04,6.18,21.12,14.87l-12.28,2.72c-.4-5.16-3.58-8.08-8.84-8.08s-8.64,2.58-8.64,6.31,2.43,5.36,7.96,6.72l5.87,1.43c10.53,2.58,16.33,7.4,16.33,16.64,0,9.85-7.76,17.11-22.2,17.11-12.69,0-20.04-6.04-22.27-15.69l12.62-2.92c.67,4.69,4.05,8.69,9.65,8.69Z"/>
        <path class="cls-3" d="M715.13,35.08h45.75v10.52h-16.94v44.95h-12.21v-44.95h-16.6v-10.52Z"/>
        <path class="cls-3" d="M767.42,35.08h22.67c14.17,0,21.05,8.08,21.05,18.47,0,8.69-4.86,14.46-13.29,16.84l15.18,20.17-13.5.14-19.23-27.7h7.89c7.56,0,10.93-3.67,10.93-9.17,0-5.16-3.44-8.49-11.13-8.49h-8.5v45.22h-12.08v-55.48Z"/>
        <path class="cls-3" d="M819.11,68.48v-33.41h12.15v32.39c0,8.69,3.51,14.19,11.34,14.19s11.27-5.5,11.27-14.19v-32.39h12.21v33.41c0,13.78-7.83,23.22-23.48,23.22s-23.48-9.44-23.48-23.22Z"/>
        <path class="cls-3" d="M900.21,91.5c-17.27,0-27.39-11.61-27.39-28.59s9.99-28.59,27.26-28.59c9.24,0,15.92,3.19,19.9,7.4l-8.3,7.54c-2.9-3.33-6.95-4.75-11.61-4.75-8.84,0-15.18,6.52-15.18,18.4s6.48,18.47,15.32,18.47c5.8,0,10.73-2.58,13.43-6.04l7.22,8.28c-4.99,4.82-11.27,7.88-20.65,7.88Z"/>
        <path class="cls-3" d="M924.03,35.08h45.75v10.52h-16.94v44.95h-12.21v-44.95h-16.6v-10.52Z"/>
        <path class="cls-3" d="M976.72,35.08h12.21v55.48h-12.21v-55.48Z"/>
        <path class="cls-3" d="M996.09,62.92c0-16.98,10.8-28.59,27.39-28.59s27.26,11.61,27.26,28.59-10.86,28.59-27.26,28.59-27.39-11.61-27.39-28.59ZM1023.48,81.38c8.77,0,15.25-6.52,15.25-18.47s-6.48-18.4-15.25-18.4-15.32,6.52-15.32,18.4,6.48,18.47,15.32,18.47Z"/>
        <path class="cls-3" d="M1057.49,35.08h10.12l24.56,33.54v-33.54h12.15v55.54h-10.05l-24.63-33.95v33.88h-12.15v-55.48Z"/>
      </g>
      <g>
        <path class="cls-3" d="M506.13,108.22h37.79v10.52h-25.64v11.07h20.17l3.71,10.73h-23.89v12.63h26.18v10.52h-38.33v-55.48Z"/>
        <path class="cls-3" d="M549.18,136.06c0-16.98,10.8-28.59,27.39-28.59s27.26,11.61,27.26,28.59c0,8.49-2.7,15.62-7.42,20.64l9.58,11.07-13.7.14-4.59-5.3c-3.31,1.29-7.08,2.04-11.13,2.04-16.6,0-27.39-11.61-27.39-28.59ZM576.58,154.52c1.35,0,2.56-.14,3.78-.41l-10.12-11.75,13.7-.07,4.93,5.64c1.89-2.99,2.97-6.99,2.97-11.88,0-11.88-6.48-18.4-15.25-18.4s-15.32,6.52-15.32,18.4,6.48,18.47,15.32,18.47Z"/>
        <path class="cls-3" d="M612.34,141.62v-33.41h12.14v32.39c0,8.69,3.51,14.19,11.34,14.19s11.27-5.5,11.27-14.19v-32.39h12.21v33.41c0,13.78-7.83,23.22-23.48,23.22s-23.48-9.44-23.48-23.22Z"/>
        <path class="cls-3" d="M669.82,108.22h12.21v55.48h-12.21v-55.48Z"/>
        <path class="cls-3" d="M692.63,108.22h22.67c14.24,0,20.92,8.35,20.92,19.96s-7.15,19.28-20.78,19.69l-4.93.14-5.87-8.83v24.51h-12.01v-55.48ZM712.8,138.7c8.1,0,11.4-4.28,11.4-10.46,0-6.59-3.1-9.85-11.4-9.85h-8.17v20.3h8.17Z"/>
        <path class="cls-3" d="M743.3,108.22h14.37l14.91,37.82,13.36-37.82h14.03v55.54h-11.2v-34.29l-12.21,34.29h-8.3l-12.96-34.63v34.56h-12.01v-55.48Z"/>
        <path class="cls-3" d="M810.1,108.22h37.79v10.52h-25.64v11.07h20.17l3.71,10.73h-23.89v12.63h26.18v10.52h-38.33v-55.48Z"/>
        <path class="cls-3" d="M856.52,108.22h10.12l24.56,33.54v-33.54h12.15v55.54h-10.05l-24.63-33.95v33.88h-12.14v-55.48Z"/>
        <path class="cls-3" d="M909.89,108.22h45.75v10.52h-16.94v44.95h-12.21v-44.95h-16.6v-10.52Z"/>
      </g>
      <g>
        <path class="cls-3" d="M402.09,34.72h-46.1v128.98h46.1c42.31,0,64.09-22.1,64.09-65.51s-21.79-63.46-64.09-63.46ZM401.3,141.76h-16.42V56.67h16.42c25.1,0,36.78,13.89,36.78,41.52s-11.68,43.57-36.78,43.57Z"/>
        <polygon class="cls-3" points="302.79 34.72 302.79 107.9 289.43 84.77 250.06 84.77 250.06 34.72 221.49 34.72 221.49 163.7 250.06 163.7 250.06 109.71 302.79 109.71 302.79 163.7 331.52 163.7 331.52 34.72 302.79 34.72"/>
      </g>
    </g>
  </g>
</svg>